<svg width="20" height="17" viewBox="0 0 20 17" fill="none" xmlns="http://www.w3.org/2000/svg">
<g opacity="0.7">
<path fill-rule="evenodd" clip-rule="evenodd" d="M12.4212 11.5617C12.0262 11.5603 11.7076 11.2396 11.7091 10.8453C11.7098 10.6481 11.7912 10.4603 11.9348 10.326C13.0905 9.25171 13.1569 7.44385 12.0826 6.28814C12.0355 6.23671 11.9862 6.18742 11.9348 6.14028C11.6291 5.89171 11.5819 5.44171 11.8305 5.13528C12.0791 4.82885 12.5283 4.78171 12.8348 5.03028C12.8605 5.051 12.8841 5.07385 12.9069 5.09742C14.6398 6.70885 14.7398 9.42028 13.1283 11.1546C13.0576 11.231 12.9833 11.3046 12.9069 11.376C12.7741 11.4967 12.6005 11.5624 12.4212 11.5617Z" fill="white"/>
<path fill-rule="evenodd" clip-rule="evenodd" d="M7.56378 11.5617C7.38307 11.561 7.2095 11.4917 7.07807 11.3688C5.3445 9.75742 5.2445 7.04599 6.85593 5.31171C6.92736 5.23528 7.00164 5.16171 7.07807 5.09028C7.34736 4.80242 7.7995 4.78742 8.08736 5.05671C8.37593 5.32671 8.39093 5.77813 8.12093 6.06599C8.09878 6.09028 8.0745 6.11242 8.0495 6.13313C6.89378 7.20742 6.82736 9.01528 7.90164 10.171C7.9495 10.2224 7.99807 10.271 8.0495 10.3188C8.33736 10.5881 8.35236 11.0403 8.08307 11.3281C7.94807 11.4724 7.76021 11.5538 7.56378 11.5546V11.5617Z" fill="white"/>
<path fill-rule="evenodd" clip-rule="evenodd" d="M14.3638 13.6544C13.9688 13.6529 13.6502 13.3322 13.6516 12.9379C13.6523 12.7415 13.7345 12.5529 13.8781 12.4194C16.1881 10.2679 16.3166 6.65222 14.1666 4.34293C14.0738 4.24293 13.9773 4.14722 13.8781 4.05436C13.5881 3.7865 13.5709 3.33364 13.8388 3.04364C14.1073 2.75364 14.5595 2.7365 14.8495 3.00436C17.7395 5.69007 17.9045 10.2094 15.2188 13.0994C15.1002 13.2265 14.9766 13.3501 14.8495 13.4686C14.7166 13.5894 14.5431 13.6558 14.3638 13.6544Z" fill="white"/>
<path fill-rule="evenodd" clip-rule="evenodd" d="M5.62078 13.6544C5.44078 13.6536 5.2665 13.5844 5.13507 13.4615C2.24507 10.7758 2.08007 6.2565 4.76578 3.36722C4.88436 3.23936 5.00793 3.11579 5.13507 2.99722C5.42507 2.72936 5.87721 2.7465 6.14578 3.0365C6.41436 3.3265 6.3965 3.77936 6.1065 4.04722C3.7965 6.19793 3.66793 9.81365 5.81864 12.1229C5.91078 12.2229 6.00721 12.3194 6.1065 12.4115C6.39436 12.6815 6.40936 13.1336 6.14007 13.4215C6.00578 13.5651 5.81721 13.6465 5.62078 13.6472V13.6544Z" fill="white"/>
<mask id="mask0" mask-type="alpha" maskUnits="userSpaceOnUse" x="15" y="0" width="5" height="16">
<path fill-rule="evenodd" clip-rule="evenodd" d="M15.5872 0.714508H19.9846V15.747H15.5872V0.714508Z" fill="white"/>
</mask>
<g mask="url(#mask0)">
<path fill-rule="evenodd" clip-rule="evenodd" d="M16.3065 15.747C15.9122 15.7506 15.5901 15.4334 15.5872 15.0384C15.5851 14.8356 15.6701 14.6413 15.8208 14.5049C19.2865 11.2799 19.4815 5.85629 16.2572 2.39058C16.1165 2.23986 15.9715 2.09486 15.8208 1.95415C15.5308 1.68629 15.5136 1.23415 15.7822 0.943434C16.0501 0.654148 16.5022 0.636291 16.7922 0.904862C20.8379 4.66415 21.0693 10.9913 17.3093 15.037C17.1436 15.2163 16.9715 15.3884 16.7922 15.5541C16.6608 15.6777 16.4872 15.747 16.3065 15.747Z" fill="white"/>
</g>
<mask id="mask1" mask-type="alpha" maskUnits="userSpaceOnUse" x="0" y="0" width="5" height="16">
<path fill-rule="evenodd" clip-rule="evenodd" d="M0 0.721283H4.39755V15.7545H0V0.721283Z" fill="white"/>
</mask>
<g mask="url(#mask1)">
<path fill-rule="evenodd" clip-rule="evenodd" d="M3.67816 15.747C3.49887 15.7484 3.3253 15.682 3.19244 15.5613C-0.853272 11.802 -1.0847 5.47487 2.6753 1.42915C2.84101 1.25058 3.01387 1.07772 3.19244 0.911295C3.48244 0.643438 3.93459 0.660581 4.20316 0.951295C4.47101 1.24058 4.45387 1.69344 4.16387 1.96201C0.698157 5.1863 0.503156 10.6099 3.72744 14.0756C3.86816 14.2263 4.01316 14.3713 4.16387 14.512C4.4553 14.777 4.47744 15.2284 4.21173 15.5206C4.0753 15.6713 3.88101 15.7563 3.67816 15.7549V15.747Z" fill="white"/>
</g>
<path fill-rule="evenodd" clip-rule="evenodd" d="M9.99229 6.8045C10.7809 6.8045 11.4209 7.4445 11.4209 8.23308C11.4209 9.02165 10.7809 9.66165 9.99229 9.66165C9.20372 9.66165 8.56372 9.02165 8.56372 8.23308C8.56372 7.4445 9.20372 6.8045 9.99229 6.8045Z" fill="white"/>
</g>
</svg>
