<svg width="21" height="20" viewBox="0 0 21 20" fill="none" xmlns="http://www.w3.org/2000/svg">
<g opacity="0.5">
<mask id="mask0" mask-type="alpha" maskUnits="userSpaceOnUse" x="9" y="0" width="11" height="11">
<path fill-rule="evenodd" clip-rule="evenodd" d="M9.41675 0.204041H19.875V10.4489H9.41675V0.204041Z" fill="white"/>
</mask>
<g mask="url(#mask0)">
<path fill-rule="evenodd" clip-rule="evenodd" d="M11.0209 5.32649C11.0209 3.36731 12.6459 1.77547 14.6457 1.77547C16.6459 1.77547 18.2709 3.36731 18.2709 5.32649C18.2709 7.28567 16.6459 8.87751 14.6457 8.87751C12.6459 8.87751 11.0209 7.28567 11.0209 5.32649ZM14.6457 0.204041C11.7709 0.204041 9.41675 2.51016 9.41675 5.32649C9.41675 8.14282 11.7709 10.4489 14.6457 10.4489C17.5209 10.4489 19.8751 8.14282 19.8751 5.32649C19.8751 2.51016 17.5209 0.204041 14.6457 0.204041Z" fill="white"/>
</g>
<mask id="mask1" mask-type="alpha" maskUnits="userSpaceOnUse" x="0" y="1" width="19" height="19">
<path fill-rule="evenodd" clip-rule="evenodd" d="M0 1.48987H18.5417V19.6735H0V1.48987Z" fill="white"/>
</mask>
<g mask="url(#mask1)">
<path fill-rule="evenodd" clip-rule="evenodd" d="M4.22917 19.6735H14.3125C16.6458 19.6735 18.5417 17.8162 18.5417 15.5307V12.4286C18.5417 12.0001 18.1875 11.6327 17.7292 11.6327C17.2917 11.6327 16.9167 11.9797 16.9167 12.4286V15.5307C16.9167 16.9388 15.75 18.1021 14.2917 18.1021H4.22917C2.79167 18.1021 1.60417 16.9593 1.60417 15.5307V5.65313C1.60417 4.24497 2.77083 3.0817 4.22917 3.0817H7.39583C7.83333 3.0817 8.20833 2.73477 8.20833 2.28579C8.20833 1.83681 7.85417 1.48987 7.39583 1.48987H4.22917C1.89583 1.51028 0 3.36742 0 5.65313V15.5307C0 17.8162 1.89583 19.6735 4.22917 19.6735Z" fill="white"/>
</g>
</g>
</svg>
