<svg width="36" height="36" viewBox="0 0 36 36" fill="none" xmlns="http://www.w3.org/2000/svg">
<path opacity="0.24" fill-rule="evenodd" clip-rule="evenodd" d="M18 36C27.9411 36 36 27.9411 36 18C36 8.05887 27.9411 0 18 0C8.05887 0 0 8.05887 0 18C0 27.9411 8.05887 36 18 36Z" fill="white" fill-opacity="0.5"/>
<path fill-rule="evenodd" clip-rule="evenodd" d="M18.3141 13.7971C17.857 13.7971 17.4858 14.1739 17.4858 14.6377V18.8406C17.4858 19.1594 17.657 19.4493 17.9427 19.5942L21.0573 21.2174C21.1713 21.2754 21.3141 21.3044 21.4284 21.3044C21.7427 21.3044 22.0284 21.1305 22.1713 20.8406C22.3713 20.4348 22.2284 19.9131 21.7998 19.7102L19.1427 18.3189V14.6377C19.1427 14.1739 18.7716 13.7971 18.3141 13.7971Z" fill="white"/>
<mask id="mask0" mask-type="alpha" maskUnits="userSpaceOnUse" x="9" y="8" width="18" height="20">
<path fill-rule="evenodd" clip-rule="evenodd" d="M9 8.28992H26.9443V27.7681H9V8.28992Z" fill="white"/>
</mask>
<g mask="url(#mask0)">
<path fill-rule="evenodd" clip-rule="evenodd" d="M25.9429 14.145H25.9717C26.1714 14.145 26.3714 14.058 26.5143 13.9421C26.686 13.7972 26.7714 13.5943 26.7714 13.3624L26.9429 9.76818C26.9717 9.30441 26.6 8.89861 26.1429 8.89861C25.686 8.86963 25.2857 9.24644 25.2857 9.71021L25.2286 10.9856C23.4571 9.27542 21.0857 8.28992 18.6 8.28992C13.2857 8.28992 9 12.6667 9 18.029C9 23.4204 13.3143 27.7682 18.6 27.7682C21.8289 27.7682 24.8289 26.1447 26.6 23.4204C26.8571 23.0435 26.7429 22.5215 26.3714 22.2609C26 22.0001 25.4857 22.116 25.2286 22.4928C23.7429 24.7537 21.2574 26.087 18.6 26.087C14.2 26.087 10.6571 22.4638 10.6571 18.029C10.6571 13.5943 14.2286 9.97108 18.6 9.97108C20.7714 9.97108 22.8289 10.8696 24.3143 12.4348L22.4286 12.3479C21.9717 12.3189 21.5714 12.6957 21.5714 13.1595C21.5431 13.6233 21.9143 14.029 22.3714 14.029L25.9429 14.145Z" fill="white"/>
</g>
</svg>
