<svg width="20" height="18" viewBox="0 0 20 18" fill="none" xmlns="http://www.w3.org/2000/svg">
<path opacity="0.5" fill-rule="evenodd" clip-rule="evenodd" d="M8.67798 12.9913C8.67961 12.9617 8.68176 12.9403 8.6818 12.9189C8.6821 12.7742 8.67909 12.6294 8.68342 12.4848C8.68509 12.4296 8.66451 12.4031 8.61619 12.3783C8.34501 12.2393 8.10128 12.0622 7.89283 11.8428C7.22055 11.1352 6.93956 10.2993 7.0912 9.34319C7.21726 8.54822 7.63369 7.91224 8.29462 7.43754C8.94169 6.97279 9.66972 6.79156 10.4643 6.90324C11.1404 6.99827 11.7134 7.30056 12.1887 7.78043C12.9557 8.55496 13.223 9.6729 12.8841 10.6927C12.7094 11.2182 12.403 11.6616 11.9973 12.0412C11.9569 12.079 11.942 12.1165 11.9428 12.1692C11.9454 12.3303 11.9435 12.4914 11.9442 12.6525C11.9443 12.6727 11.9371 12.6956 11.9548 12.7136C13.026 12.0516 13.8842 10.6076 13.4665 8.95429C13.0758 7.40734 11.6121 6.24695 9.83407 6.3449C8.12851 6.43886 6.758 7.70167 6.5374 9.34225C6.30202 11.0928 7.428 12.4783 8.67798 12.9913ZM11.8964 15.5659C11.945 15.5721 11.9775 15.5539 12.011 15.543C12.8535 15.2709 13.5977 14.8348 14.245 14.2409C15.7144 12.8927 16.4304 10.9604 16.1735 8.99171C16.0974 8.4081 15.9392 7.84622 15.6979 7.30689C14.8012 5.30194 12.8376 3.86454 10.4617 3.69485C9.85526 3.65154 9.25412 3.69296 8.65945 3.81989C7.57356 4.05167 6.61313 4.52818 5.79723 5.26784C4.54141 6.4063 3.87892 7.82423 3.78421 9.49678C3.74843 10.1288 3.81837 10.7526 3.98822 11.3641C4.31903 12.5551 4.95782 13.5595 5.90101 14.3746C6.67484 15.0432 7.56593 15.4932 8.57174 15.7213C8.64764 15.7385 8.64825 15.7382 8.64856 15.6582C8.64904 15.533 8.64891 15.4078 8.6486 15.2825C8.64841 15.2083 8.648 15.2084 8.57675 15.1904C7.68775 14.9659 6.89804 14.556 6.2185 13.9509C5.13887 12.9896 4.5155 11.7942 4.34964 10.3724C4.29643 9.91628 4.3094 9.45965 4.37482 9.00436C4.46512 8.37602 4.65892 7.78066 4.95678 7.21787C5.83004 5.56785 7.50143 4.43625 9.39222 4.24344C10.0267 4.17874 10.6555 4.20935 11.2763 4.35194C12.4708 4.62628 13.4784 5.2146 14.2868 6.11998C15.1282 7.06242 15.5918 8.16391 15.6732 9.41546C15.7071 9.93674 15.6606 10.4535 15.5472 10.9649C15.1697 12.6669 13.9765 14.1089 12.3555 14.8174C12.2214 14.876 12.085 14.9292 11.9466 14.9773C11.9191 14.9869 11.8958 14.9951 11.896 15.031C11.8969 15.2077 11.8964 15.3843 11.8964 15.5659ZM15.4652 18H15.4318C15.4377 17.9693 15.4091 17.966 15.3924 17.9563C15.2803 17.8912 15.168 17.8263 15.0543 17.764C13.9264 17.1449 12.7287 16.7192 11.4479 16.5236C11.3294 16.5055 11.3296 16.5045 11.3296 16.3861C11.3296 14.1355 11.3296 11.8849 11.3296 9.6343C11.3296 9.60718 11.3292 9.58007 11.329 9.55296C11.3289 9.53359 11.3195 9.52258 11.2991 9.52218C11.2769 9.52174 11.2547 9.52158 11.2325 9.52158C10.9019 9.52155 10.5713 9.52156 10.2407 9.52156C9.724 9.52156 9.20728 9.52145 8.69057 9.52168C8.61777 9.52172 8.61691 9.52251 8.61683 9.59226C8.61649 9.89866 8.61646 10.2051 8.61686 10.5115C8.61695 10.5784 8.61795 10.5792 8.68474 10.5796C8.80975 10.5802 8.93477 10.5792 9.05977 10.5799C9.17392 10.5805 9.16109 10.5671 9.1611 10.6802C9.16135 12.5539 9.16129 14.4276 9.16129 16.3013C9.16129 16.3176 9.16005 16.3339 9.16144 16.3501C9.1646 16.3867 9.15149 16.4047 9.11054 16.4049C9.0691 16.4052 9.02763 16.4114 8.98631 16.4161C8.83754 16.4331 8.68982 16.4603 8.53886 16.4551C8.47508 16.4529 8.41142 16.4586 8.34762 16.4637C8.2189 16.4741 8.09953 16.5206 7.97553 16.5489C7.67594 16.6173 7.37577 16.6834 7.08181 16.7734C6.93378 16.8187 6.783 16.8543 6.63863 16.9122C6.47415 16.9781 6.31935 17.0639 6.15723 17.1326C5.94367 17.2231 5.73136 17.3146 5.52286 17.4161C5.40856 17.4717 5.29669 17.5305 5.1853 17.5911C4.9836 17.7008 4.7966 17.8325 4.60436 17.9563C4.56879 17.9792 4.54676 17.9881 4.50493 17.9602C2.42962 16.5757 1.03522 14.7108 0.349336 12.3473C0.190127 11.7987 0.0907877 11.2384 0.0394048 10.67C0.0230497 10.489 0.012513 10.3078 0.00345184 10.1264C0.00465222 10.1022 0.00794492 10.0779 0.00672787 10.0539C-0.00253338 9.86999 -0.00208323 9.68616 0.00715301 9.5023C0.00822835 9.48091 0.00506902 9.45932 0.00387698 9.43783C0.00501067 9.4216 0.00664451 9.4054 0.00723637 9.38916C0.0287181 8.79976 0.105517 8.21715 0.24116 7.64258C0.747053 5.49957 1.8584 3.71092 3.58036 2.29658C5.35395 0.83982 7.41106 0.0807794 9.72909 0C9.92976 0.00462155 10.1304 0.00454018 10.3311 5.69557e-05C10.6508 0.00698114 10.9692 0.0320254 11.2861 0.0711946C11.9404 0.152031 12.5805 0.294339 13.2061 0.498875C15.7939 1.34498 17.9249 3.19953 19.0821 5.62016C19.6188 6.74302 19.9249 7.9235 19.9851 9.16288C19.9843 9.19483 19.9842 9.22682 19.9826 9.25873C19.9783 9.34169 20.0015 9.42274 19.9999 9.50547V9.89602C19.9995 9.952 19.9981 10.0076 19.9912 10.0636C19.9814 10.143 19.9776 10.2234 19.9852 10.3037C19.9833 10.366 19.9838 10.4285 19.979 10.4905C19.9385 11.018 19.8617 11.5402 19.7352 12.0549C19.2452 14.0482 18.2156 15.7274 16.653 17.0956C16.2992 17.4055 15.9213 17.6855 15.525 17.9418C15.5023 17.9565 15.4647 17.961 15.4652 18Z" fill="white"/>
</svg>
