<svg width="23" height="16" viewBox="0 0 23 16" fill="none" xmlns="http://www.w3.org/2000/svg">
<mask id="mask0" mask-type="alpha" maskUnits="userSpaceOnUse" x="7" y="0" width="15" height="15">
<path fill-rule="evenodd" clip-rule="evenodd" d="M7.36426 0.234375H22V14.8242H7.36426V0.234375Z" fill="white"/>
</mask>
<g mask="url(#mask0)">
<path fill-rule="evenodd" clip-rule="evenodd" d="M20.8422 11.5898L18.619 12.3166V9.7851C18.619 9.45697 18.3643 9.19916 18.04 9.19916C17.7158 9.19916 17.4843 9.45697 17.4843 9.7851V12.7148L15.2611 13.4413V5.70697L20.8422 3.85541V11.5898ZM14.6822 4.67572L13.1074 4.1601L14.219 3.76166C14.52 3.64447 14.6822 3.31635 14.5664 3.01166C14.4506 2.70697 14.1264 2.56635 13.8253 2.6601L11.3474 3.57416L9.79584 3.05853L14.6822 1.44135L19.5685 3.05853L14.6822 4.67572ZM14.1032 13.4413L8.52215 11.5898V3.85541L10.7453 4.58197V8.96478C10.7453 9.29291 11 9.55072 11.3243 9.55072C11.6485 9.55072 11.9032 9.29291 11.9032 8.96478V4.98041L14.1264 5.70697V13.4413H14.1032ZM21.6064 2.49603L14.8674 0.26947C14.7516 0.222595 14.6358 0.222595 14.4969 0.26947L7.75794 2.49603C7.52636 2.56635 7.36426 2.80072 7.36426 3.05853V12.0117C7.36426 12.2695 7.52636 12.4804 7.75794 12.5742L14.4969 14.8007C14.5664 14.8242 14.6127 14.8242 14.6822 14.8242C14.7516 14.8242 14.7979 14.8242 14.8674 14.8007L21.6064 12.551C21.8379 12.4804 22 12.246 22 11.9882V3.05853C22 2.80072 21.8379 2.58978 21.6064 2.49603Z" fill="#F5F6FA"/>
</g>
<path fill-rule="evenodd" clip-rule="evenodd" d="M4.67789 3.69144H0.578947C0.254737 3.69144 0 3.94925 0 4.27737C0 4.6055 0.254737 4.86331 0.578947 4.86331H4.67789C5.00211 4.86331 5.25684 4.6055 5.25684 4.27737C5.23368 3.94925 4.97895 3.69144 4.67789 3.69144Z" fill="#F5F6FA"/>
<path fill-rule="evenodd" clip-rule="evenodd" d="M4.67789 6.94922H0.578947C0.254737 6.94922 0 7.20703 0 7.53516C0 7.86328 0.254737 8.12109 0.578947 8.12109H4.67789C5.00211 8.12109 5.25684 7.86328 5.25684 7.53516C5.25684 7.20703 4.97895 6.94922 4.67789 6.94922Z" fill="#F5F6FA"/>
<path fill-rule="evenodd" clip-rule="evenodd" d="M4.67789 10.207H0.578947C0.254737 10.207 0 10.4648 0 10.7929C0 11.1211 0.254737 11.3789 0.578947 11.3789H4.67789C5.00211 11.3789 5.25684 11.1211 5.25684 10.7929C5.25684 10.4648 4.97895 10.207 4.67789 10.207Z" fill="#F5F6FA"/>
</svg>
