<svg width="21" height="21" viewBox="0 0 21 21" fill="none" xmlns="http://www.w3.org/2000/svg">
<g opacity="0.5">
<path fill-rule="evenodd" clip-rule="evenodd" d="M9.08974 2.2303C13.4732 1.72141 17.4457 4.82 17.9714 9.15757C18.0046 9.43656 18.2601 9.63596 18.5418 9.60303C18.8234 9.5701 19.025 9.31737 18.9918 9.03838C18.4052 4.14202 13.9197 0.643634 8.97341 1.22424C4.02709 1.80505 0.4928 6.24505 1.07954 11.1414C1.10954 11.3958 1.32688 11.5875 1.58566 11.5879H1.64688C1.92668 11.5554 2.12688 11.3042 2.09403 11.0273C2.09382 11.0269 2.09382 11.0267 2.09382 11.0263C1.57607 6.68606 4.70627 2.7507 9.08974 2.2303Z" fill="white"/>
<path fill-rule="evenodd" clip-rule="evenodd" d="M8.35111 18.8404C8.60294 18.9644 8.90886 18.8632 9.03478 18.6141C10.3719 15.9596 10.8944 12.9755 10.5368 10.0303C10.5036 9.75148 10.2482 9.55188 9.96641 9.58502C9.68458 9.61774 9.48315 9.87067 9.51641 10.1495C9.85213 12.8977 9.36764 15.683 8.12253 18.1618C7.996 18.4109 8.09764 18.7145 8.34947 18.8396C8.35009 18.84 8.3507 18.8402 8.35111 18.8404Z" fill="white"/>
<path fill-rule="evenodd" clip-rule="evenodd" d="M16.0002 16.4848C16.0341 16.4884 16.0681 16.4884 16.1022 16.4848C16.3445 16.485 16.5537 16.3161 16.602 16.0807C17.0573 13.8421 17.1496 11.5462 16.8757 9.27891C16.7345 8.10335 16.2863 6.98436 15.5757 6.03224C15.4065 5.80921 15.0867 5.76396 14.8614 5.93123C14.6359 6.0987 14.5902 6.41527 14.7594 6.6383C15.3643 7.44961 15.7453 8.40275 15.8655 9.40416C16.1269 11.5656 16.0394 13.7545 15.6061 15.889C15.5496 16.1609 15.7255 16.4272 16.0002 16.4848Z" fill="white"/>
<path fill-rule="evenodd" clip-rule="evenodd" d="M3.59789 15.2C4.17748 13.7996 4.38809 12.2766 4.21013 10.7738C3.82789 7.58833 6.12687 4.69944 9.34462 4.32126C10.5287 4.18207 11.7277 4.40328 12.7816 4.9556C13.0307 5.08611 13.3395 4.99197 13.4714 4.7455C13.6032 4.49883 13.5083 4.19318 13.2591 4.06267C9.89932 2.29661 5.72952 3.56106 3.94564 6.88691C3.28707 8.11479 3.0232 9.51257 3.18973 10.893C3.34911 12.2245 3.16442 13.5744 2.65299 14.8162C2.54646 15.0744 2.67156 15.3693 2.93258 15.4746C3.1936 15.5802 3.49136 15.4564 3.59789 15.198V15.2Z" fill="white"/>
<path fill-rule="evenodd" clip-rule="evenodd" d="M10.6836 18.9313C10.9424 19.042 11.2426 18.9242 11.3544 18.6681C11.3546 18.6677 11.3548 18.6671 11.355 18.6666C12.5681 15.8679 13.0152 12.802 12.6512 9.77776C12.453 8.34968 11.1226 7.35089 9.68014 7.54705C8.27809 7.73776 7.2783 8.98968 7.41422 10.3838C7.48667 10.9911 7.5134 11.603 7.49401 12.2141C7.48483 12.4929 7.70565 12.7262 7.98728 12.7353H7.98789C8.26585 12.7479 8.50156 12.5345 8.51381 12.2592C8.51401 12.2549 8.51422 12.2507 8.51442 12.2464C8.53483 11.586 8.50544 10.9248 8.42646 10.2687C8.27422 9.39796 8.86381 8.56988 9.7434 8.41917C10.623 8.26847 11.4595 8.8521 11.6118 9.72261C11.6222 9.7816 11.6291 9.84119 11.6326 9.90099C11.9734 12.7477 11.5512 15.6329 10.4081 18.2666C10.2979 18.5232 10.4187 18.82 10.6783 18.9291C10.6799 18.9297 10.6818 18.9305 10.6836 18.9313Z" fill="white"/>
<path fill-rule="evenodd" clip-rule="evenodd" d="M6.27546 18.2019C6.52239 18.3339 6.83056 18.2436 6.96525 17.9999C7.44811 17.1034 7.82403 16.1543 8.08566 15.1716C8.15729 14.9017 7.99403 14.6254 7.72137 14.5545C7.44872 14.4838 7.16954 14.6452 7.0979 14.9151C6.8575 15.8274 6.51015 16.7088 6.06321 17.5413C5.94607 17.7825 6.03913 18.0722 6.27546 18.2019Z" fill="white"/>
<path fill-rule="evenodd" clip-rule="evenodd" d="M14.255 10.101C14.5368 10.101 14.7652 9.87495 14.7652 9.59596V9.5495V9.53334C14.4489 6.94586 12.0736 5.10223 9.4595 5.41556C9.14297 5.45334 8.83113 5.52263 8.52848 5.62223C8.26093 5.7099 8.11562 5.99556 8.20419 6.26061C8.29256 6.52566 8.58134 6.6695 8.84889 6.58182C9.09011 6.5 9.33909 6.44243 9.59175 6.4101C11.6401 6.17152 13.4981 7.61616 13.7491 9.64243C13.7732 9.90162 13.9922 10.1 14.255 10.101Z" fill="white"/>
<path fill-rule="evenodd" clip-rule="evenodd" d="M13.249 18.299C13.5162 18.3871 13.8047 18.2442 13.8939 17.9798C14.5013 16.1879 14.8396 14.3174 14.898 12.4283C14.906 12.1501 14.6852 11.918 14.4041 11.9091C14.126 11.8968 13.8907 12.1099 13.878 12.3852C13.8778 12.3895 13.8776 12.3937 13.8776 12.398C13.8241 14.185 13.5066 15.9547 12.9347 17.6505C12.8394 17.9129 12.9772 18.2022 13.2423 18.2966C13.2445 18.2974 13.2468 18.2982 13.249 18.299Z" fill="white"/>
<path fill-rule="evenodd" clip-rule="evenodd" d="M4.47144 17.0889C4.72185 17.2167 5.0296 17.1194 5.15879 16.8717C5.15899 16.8713 5.15899 16.8711 5.15919 16.8707C6.17715 14.9177 6.57981 12.7072 6.3143 10.5252C6.21185 9.66602 6.41634 8.79855 6.89185 8.07269C7.05511 7.84542 7.00144 7.53027 6.77185 7.36845C6.54226 7.20663 6.22368 7.25976 6.06042 7.48703C6.05205 7.49875 6.04409 7.51087 6.03675 7.52319C5.43307 8.44764 5.17471 9.55148 5.30613 10.6444C5.54654 12.6274 5.1796 14.6359 4.25307 16.4103C4.12471 16.6573 4.22226 16.9606 4.47144 17.0889Z" fill="white"/>
<mask id="mask0" mask-type="alpha" maskUnits="userSpaceOnUse" x="17" y="0" width="3" height="4">
<path fill-rule="evenodd" clip-rule="evenodd" d="M17.0408 0.202026H20V3.1252H17.0408V0.202026Z" fill="white"/>
</mask>
<g mask="url(#mask0)">
<path fill-rule="evenodd" clip-rule="evenodd" d="M20 1.53328C19.9987 0.798531 19.3973 0.203177 18.6551 0.201965H17.551C17.2691 0.201965 17.0408 0.428026 17.0408 0.707016C17.0408 0.986006 17.2691 1.21207 17.551 1.21207H18.6489C18.8281 1.20883 18.9761 1.34984 18.9795 1.52722V1.53328V2.62015C18.9795 2.89914 19.2079 3.1252 19.4898 3.1252C19.7716 3.1252 20 2.89914 20 2.62015V1.53328Z" fill="white"/>
</g>
<path fill-rule="evenodd" clip-rule="evenodd" d="M0 2.62021C0 2.899 0.228367 3.12526 0.510204 3.12526C0.792041 3.12526 1.02041 2.899 1.02041 2.62021V1.53334C1.02041 1.35597 1.16571 1.21213 1.3449 1.21213H2.44898C2.73082 1.21213 2.95918 0.986067 2.95918 0.707077C2.95918 0.428087 2.73082 0.202026 2.44898 0.202026H1.3449C0.602653 0.203036 0.00102041 0.79839 0 1.53334V2.62021Z" fill="white"/>
<mask id="mask1" mask-type="alpha" maskUnits="userSpaceOnUse" x="0" y="17" width="3" height="3">
<path fill-rule="evenodd" clip-rule="evenodd" d="M0 17.0081H2.95918V19.9313H0V17.0081Z" fill="white"/>
</mask>
<g mask="url(#mask1)">
<path fill-rule="evenodd" clip-rule="evenodd" d="M0 18.6C0.00102041 19.3348 0.602653 19.9301 1.3449 19.9313H2.44898C2.73082 19.9313 2.95918 19.7053 2.95918 19.4263C2.95918 19.1473 2.73082 18.9212 2.44898 18.9212H1.3449C1.16571 18.9212 1.02041 18.7774 1.02041 18.6V17.5132C1.02041 17.2342 0.792041 17.0081 0.510204 17.0081C0.228367 17.0081 0 17.2342 0 17.5132V18.6Z" fill="white"/>
</g>
<mask id="mask2" mask-type="alpha" maskUnits="userSpaceOnUse" x="17" y="17" width="3" height="3">
<path fill-rule="evenodd" clip-rule="evenodd" d="M17.0408 17.0081H20V19.9313H17.0408V17.0081Z" fill="white"/>
</mask>
<g mask="url(#mask2)">
<path fill-rule="evenodd" clip-rule="evenodd" d="M20 18.6V17.5132C20 17.2342 19.7716 17.0081 19.4898 17.0081C19.2079 17.0081 18.9795 17.2342 18.9795 17.5132V18.6C18.9795 18.7774 18.8342 18.9212 18.6551 18.9212H17.551C17.2691 18.9212 17.0408 19.1473 17.0408 19.4263C17.0408 19.7053 17.2691 19.9313 17.551 19.9313H18.6489C19.3928 19.9336 19.9977 19.3384 20 18.6021V18.6Z" fill="white"/>
</g>
</g>
</svg>
