<svg width="20" height="20" viewBox="0 0 20 20" fill="none" xmlns="http://www.w3.org/2000/svg">
<g opacity="0.7">
<path fill-rule="evenodd" clip-rule="evenodd" d="M3.125 20C3.045 20 2.96375 19.9837 2.88625 19.9525C2.6525 19.8562 2.5 19.6275 2.5 19.375V16.25H1.875C0.84125 16.25 0 15.4088 0 14.375V4.375C0 3.34125 0.84125 2.5 1.875 2.5H8.125C8.47 2.5 8.75 2.78 8.75 3.125C8.75 3.47 8.47 3.75 8.125 3.75H1.875C1.53 3.75 1.25 4.03 1.25 4.375V14.375C1.25 14.7188 1.53 15 1.875 15H3.125C3.47 15 3.75 15.28 3.75 15.625V17.8663L6.4325 15.1838C6.55 15.0662 6.70875 15 6.875 15H16.875C17.2188 15 17.5 14.7188 17.5 14.375V11.875C17.5 11.53 17.78 11.25 18.125 11.25C18.47 11.25 18.75 11.53 18.75 11.875V14.375C18.75 15.4088 17.9088 16.25 16.875 16.25H7.13375L3.56625 19.8175C3.4475 19.9362 3.2875 20 3.125 20Z" fill="white"/>
<mask id="mask0" mask-type="alpha" maskUnits="userSpaceOnUse" x="9" y="0" width="11" height="11">
<path fill-rule="evenodd" clip-rule="evenodd" d="M9.24023 0H19.9995V10.2951H9.24023V0Z" fill="white"/>
</mask>
<g mask="url(#mask0)">
<path fill-rule="evenodd" clip-rule="evenodd" d="M11.2085 4.51601L12.6785 5.94976C12.826 6.09351 12.8948 6.29976 12.8598 6.50226L12.5123 8.52601L14.331 7.57101C14.5135 7.47476 14.731 7.47476 14.9123 7.57101L16.7298 8.52601L16.3835 6.50226C16.3485 6.29976 16.4148 6.09226 16.5635 5.94976L18.0348 4.51601L16.001 4.21976C15.7985 4.19101 15.621 4.06226 15.531 3.87851L14.6223 2.03601L13.711 3.87851C13.621 4.06226 13.4435 4.19101 13.241 4.21976L11.2085 4.51601ZM17.5585 10.2948C17.4585 10.2948 17.3598 10.2698 17.2698 10.2223L14.621 8.82976L11.971 10.2235C11.761 10.3335 11.506 10.316 11.3135 10.176C11.121 10.036 11.0235 9.79851 11.0648 9.56351L11.571 6.61476L9.42851 4.52726C9.25851 4.36101 9.19726 4.11351 9.27101 3.88726C9.34351 3.66101 9.53976 3.49601 9.77476 3.46226L12.7335 3.03101L14.0598 0.348506C14.1648 0.134756 14.3823 -0.000244141 14.6198 -0.000244141C14.8573 -0.000244141 15.0748 0.134756 15.1798 0.348506L16.5035 3.03101L19.4648 3.46226C19.6998 3.49601 19.896 3.66101 19.9685 3.88726C20.0423 4.11351 19.9823 4.36101 19.8098 4.52726L17.6673 6.61601L18.1735 9.56351C18.2135 9.79851 18.1173 10.0348 17.9248 10.1748C17.8173 10.2548 17.6885 10.2935 17.5585 10.2948Z" fill="white"/>
</g>
</g>
</svg>
