<svg width="19" height="21" viewBox="0 0 19 21" fill="none" xmlns="http://www.w3.org/2000/svg">
<mask id="mask0" mask-type="alpha" maskUnits="userSpaceOnUse" x="0" y="0" width="19" height="21">
<path fill-rule="evenodd" clip-rule="evenodd" d="M0 0H18.9999V20.822H0V0Z" fill="white"/>
</mask>
<g mask="url(#mask0)">
<path fill-rule="evenodd" clip-rule="evenodd" d="M7.8755 3.78178C5.39417 4.47869 3.65385 6.69936 3.65385 9.25388V13.5247C3.65385 14.311 2.99908 14.9492 2.19304 14.9492C1.78965 14.9492 1.46154 15.2688 1.46154 15.661C1.46154 16.054 1.78965 16.3729 2.19596 16.3729H16.804C17.2092 16.3729 17.5385 16.0529 17.5385 15.661C17.5385 15.2691 17.2089 14.9492 16.807 14.9492C15.9995 14.9492 15.3462 14.3131 15.3462 13.5247V9.25388C15.3462 6.70007 13.6055 4.47869 11.1241 3.78178L10.5962 3.63336V2.48975C10.5962 1.90103 10.1054 1.42373 9.5 1.42373C8.89565 1.42373 8.40385 1.9021 8.40385 2.48975V3.63336L7.8755 3.78178ZM11.3178 17.7966H7.68221C7.77356 18.6957 8.55256 19.3983 9.5 19.3983C10.4474 19.3983 11.2261 18.6957 11.3178 17.7966ZM12.7833 17.7966C12.6883 19.483 11.2549 20.822 9.5 20.822C7.74506 20.822 6.31129 19.483 6.21629 17.7966H2.19596C0.98325 17.7966 0 16.8409 0 15.661C0 14.4825 0.982154 13.5254 2.19304 13.5254C2.19158 13.5254 2.19231 9.25388 2.19231 9.25388C2.19231 6.24519 4.12337 3.60773 6.94231 2.58371V2.48975C6.94231 1.11514 8.08888 0 9.5 0C10.9122 0 12.0577 1.11442 12.0577 2.48975V2.58371C14.8763 3.60773 16.8077 6.2459 16.8077 9.25388V13.5247C18.0157 13.5254 19 14.4822 19 15.661C19 16.8399 18.0157 17.7966 16.804 17.7966H12.7833Z" fill="white" fill-opacity="0.7"/>
</g>
</svg>
