<svg width="28" height="24" viewBox="0 0 24 24" fill="none" xmlns="http://www.w3.org/2000/svg">
<path fill-rule="evenodd" clip-rule="evenodd" d="M9.34657 2.05795C5.29863 2.05795 2.01904 5.32738 2.01904 9.36336C2.01904 13.3993 5.29863 16.6708 9.34657 16.6708C13.3925 16.6708 16.6731 13.3993 16.6731 9.36336C16.6731 5.32738 13.3925 2.05795 9.34657 2.05795ZM23.543 23.4868C23.5321 23.4987 23.5213 23.5095 23.5104 23.5204C23.4532 23.5776 23.3901 23.6309 23.324 23.6802C22.6336 24.1972 21.6522 24.063 21.0416 23.4533L14.6166 17.0269C13.1164 18.05 11.3035 18.6508 9.34855 18.6508C4.18603 18.6508 0 14.4757 0 9.32587C0 4.17509 4.18603 0 9.34855 0C14.513 0 18.6991 4.17509 18.6991 9.32587C18.6991 11.2862 18.0885 13.1054 17.0509 14.6079L23.4572 21.0155C24.1299 21.6893 24.1989 22.7982 23.543 23.4868Z" fill="black" fill-opacity="0.3"/>
<path fill-rule="evenodd" clip-rule="evenodd" d="M9.34657 2.05795C5.29863 2.05795 2.01904 5.32738 2.01904 9.36336C2.01904 13.3993 5.29863 16.6708 9.34657 16.6708C13.3925 16.6708 16.6731 13.3993 16.6731 9.36336C16.6731 5.32738 13.3925 2.05795 9.34657 2.05795ZM23.543 23.4868C23.5321 23.4987 23.5213 23.5095 23.5104 23.5204C23.4532 23.5776 23.3901 23.6309 23.324 23.6802C22.6336 24.1972 21.6522 24.063 21.0416 23.4533L14.6166 17.0269C13.1164 18.05 11.3035 18.6508 9.34855 18.6508C4.18603 18.6508 0 14.4757 0 9.32587C0 4.17509 4.18603 0 9.34855 0C14.513 0 18.6991 4.17509 18.6991 9.32587C18.6991 11.2862 18.0885 13.1054 17.0509 14.6079L23.4572 21.0155C24.1299 21.6893 24.1989 22.7982 23.543 23.4868Z" fill="#9EA5BD"/>
</svg>
