<svg width="20" height="16" viewBox="0 0 20 16" fill="none" xmlns="http://www.w3.org/2000/svg">
<g opacity="0.5">
<path fill-rule="evenodd" clip-rule="evenodd" d="M14.375 1.23077C13.6856 1.23077 13.125 1.78277 13.125 2.46154C13.125 3.14031 13.6856 3.69231 14.375 3.69231C15.0644 3.69231 15.625 3.14031 15.625 2.46154C15.625 1.78277 15.0644 1.23077 14.375 1.23077ZM14.375 4.92308C12.9963 4.92308 11.875 3.81908 11.875 2.46154C11.875 1.104 12.9963 0 14.375 0C15.7537 0 16.875 1.104 16.875 2.46154C16.875 3.81908 15.7537 4.92308 14.375 4.92308Z" fill="white"/>
<path fill-rule="evenodd" clip-rule="evenodd" d="M19.375 3.07693H16.25C15.9044 3.07693 15.625 2.80124 15.625 2.46155C15.625 2.12185 15.9044 1.84616 16.25 1.84616H19.375C19.7206 1.84616 20 2.12185 20 2.46155C20 2.80124 19.7206 3.07693 19.375 3.07693Z" fill="white"/>
<path fill-rule="evenodd" clip-rule="evenodd" d="M12.5 3.07693H0.625C0.28 3.07693 0 2.80124 0 2.46155C0 2.12185 0.28 1.84616 0.625 1.84616H12.5C12.8456 1.84616 13.125 2.12185 13.125 2.46155C13.125 2.80124 12.8456 3.07693 12.5 3.07693Z" fill="white"/>
<path fill-rule="evenodd" clip-rule="evenodd" d="M5.625 6.76922C4.93563 6.76922 4.375 7.32122 4.375 7.99999C4.375 8.67876 4.93563 9.23076 5.625 9.23076C6.31437 9.23076 6.875 8.67876 6.875 7.99999C6.875 7.32122 6.31437 6.76922 5.625 6.76922ZM5.625 10.4615C4.24625 10.4615 3.125 9.35753 3.125 7.99999C3.125 6.64245 4.24625 5.53845 5.625 5.53845C7.00375 5.53845 8.125 6.64245 8.125 7.99999C8.125 9.35753 7.00375 10.4615 5.625 10.4615Z" fill="white"/>
<path fill-rule="evenodd" clip-rule="evenodd" d="M3.75 8.61538H0.625C0.28 8.61538 0 8.33969 0 8C0 7.66031 0.28 7.38461 0.625 7.38461H3.75C4.095 7.38461 4.375 7.66031 4.375 8C4.375 8.33969 4.095 8.61538 3.75 8.61538Z" fill="white"/>
<path fill-rule="evenodd" clip-rule="evenodd" d="M19.375 8.61538H7.5C7.155 8.61538 6.875 8.33969 6.875 8C6.875 7.66031 7.155 7.38461 7.5 7.38461H19.375C19.7206 7.38461 20 7.66031 20 8C20 8.33969 19.7206 8.61538 19.375 8.61538Z" fill="white"/>
<path fill-rule="evenodd" clip-rule="evenodd" d="M14.375 12.3077C13.6856 12.3077 13.125 12.8597 13.125 13.5385C13.125 14.2172 13.6856 14.7692 14.375 14.7692C15.0644 14.7692 15.625 14.2172 15.625 13.5385C15.625 12.8597 15.0644 12.3077 14.375 12.3077ZM14.375 16C12.9963 16 11.875 14.896 11.875 13.5385C11.875 12.1809 12.9963 11.0769 14.375 11.0769C15.7537 11.0769 16.875 12.1809 16.875 13.5385C16.875 14.896 15.7537 16 14.375 16Z" fill="white"/>
<path fill-rule="evenodd" clip-rule="evenodd" d="M19.375 14.1538H16.25C15.9044 14.1538 15.625 13.8788 15.625 13.5384C15.625 13.1981 15.9044 12.9231 16.25 12.9231H19.375C19.7206 12.9231 20 13.1981 20 13.5384C20 13.8788 19.7206 14.1538 19.375 14.1538Z" fill="white"/>
<path fill-rule="evenodd" clip-rule="evenodd" d="M12.5 14.1538H0.625C0.28 14.1538 0 13.8788 0 13.5384C0 13.1981 0.28 12.9231 0.625 12.9231H12.5C12.8456 12.9231 13.125 13.1981 13.125 13.5384C13.125 13.8788 12.8456 14.1538 12.5 14.1538Z" fill="white"/>
</g>
</svg>
