<svg width="36" height="36" viewBox="0 0 36 36" fill="none" xmlns="http://www.w3.org/2000/svg">
<path opacity="0.235491" fill-rule="evenodd" clip-rule="evenodd" d="M18 36C27.9411 36 36 27.9411 36 18C36 8.05887 27.9411 0 18 0C8.05887 0 0 8.05887 0 18C0 27.9411 8.05887 36 18 36Z" fill="white"/>
<path fill-rule="evenodd" clip-rule="evenodd" d="M23.803 12.197C22.3041 10.6981 20.2484 9.79872 17.9786 9.79872C15.7088 9.79872 13.6959 10.6981 12.197 12.197C10.6981 13.6959 9.79872 15.7088 9.79872 17.9786C9.79872 20.2484 10.6981 22.3041 12.197 23.803C13.6959 25.2591 15.7088 26.2013 17.9786 26.2013C20.2484 26.2013 22.3041 25.2591 23.803 23.803C25.2591 22.3041 26.2013 20.2484 26.2013 17.9786C26.2013 15.7088 25.2591 13.6959 23.803 12.197ZM17.9786 8C20.7623 8 23.2463 9.11349 25.045 10.9122H25.0878C26.8865 12.7537 28 15.2377 28 17.9786C28 20.7623 26.8865 23.2463 25.0878 25.045H25.045V25.0878C23.2463 26.8865 20.7623 28 17.9786 28C15.2377 28 12.7537 26.8865 10.9122 25.0878V25.045C9.11349 23.2463 8 20.7623 8 17.9786C8 15.2377 9.11349 12.7537 10.9122 10.9122C12.7537 9.11349 15.2377 8 17.9786 8Z" fill="white"/>
<path fill-rule="evenodd" clip-rule="evenodd" d="M21.2492 17.6377L16.8067 14.7589V20.5594L21.2492 17.6377ZM16.4069 12.3098L23.426 16.9072C23.8702 17.165 24.0035 17.7236 23.6925 18.1533C23.6481 18.2822 23.5592 18.3251 23.426 18.4111L16.3625 23.0085C15.9627 23.3093 15.3852 23.1804 15.0742 22.7507C14.9853 22.6218 14.8965 22.4499 14.8965 22.2781V13.0402C14.8965 12.5246 15.3407 12.1379 15.8738 12.1379C16.0515 12.1379 16.2736 12.2239 16.4069 12.3098Z" fill="white"/>
</svg>
