<svg width="36" height="36" viewBox="0 0 36 36" fill="none" xmlns="http://www.w3.org/2000/svg">
<path opacity="0.24" fill-rule="evenodd" clip-rule="evenodd" d="M18 36C27.9411 36 36 27.9411 36 18C36 8.05887 27.9411 0 18 0C8.05887 0 0 8.05887 0 18C0 27.9411 8.05887 36 18 36Z" fill="white"/>
<path fill-rule="evenodd" clip-rule="evenodd" d="M16.3336 22.1667C16.1127 22.1667 15.9002 22.0792 15.7444 21.9225L12.4111 18.5892C12.0852 18.2633 12.0861 17.7358 12.4111 17.41C12.7369 17.085 13.2644 17.085 13.5902 17.4108L16.3336 20.1542L22.4102 14.0775C22.7361 13.7517 23.2636 13.7517 23.5894 14.0775C23.9152 14.4033 23.9152 14.9308 23.5894 15.2567L16.9227 21.9233C16.7669 22.08 16.5544 22.1667 16.3336 22.1667Z" fill="white"/>
<path fill-rule="evenodd" clip-rule="evenodd" d="M18 9.66667C13.3975 9.66667 9.66667 13.3975 9.66667 18C9.66667 22.6017 13.3975 26.3333 18 26.3333C22.6017 26.3333 26.3333 22.6017 26.3333 18C26.3283 13.3992 22.6008 9.67167 18 9.66667ZM18 28C12.4775 28 8 23.5225 8 18C8 12.4775 12.4775 8 18 8C23.5225 8 28 12.4775 28 18C27.9942 23.52 23.52 27.9942 18 28Z" fill="white"/>
</svg>
