<svg width="36" height="36" viewBox="0 0 36 36" fill="none" xmlns="http://www.w3.org/2000/svg">
<path opacity="0.24" fill-rule="evenodd" clip-rule="evenodd" d="M18 36C27.9411 36 36 27.9411 36 18C36 8.05887 27.9411 0 18 0C8.05887 0 0 8.05887 0 18C0 27.9411 8.05887 36 18 36Z" fill="white"/>
<path fill-rule="evenodd" clip-rule="evenodd" d="M26.6035 21.4599C26.6035 22.466 25.7995 23.2814 24.808 23.2814H16.5037C16.3045 23.2748 16.1127 23.3583 15.98 23.509L14.5087 25.229L13.0374 23.509C12.9047 23.3583 12.713 23.2748 12.5137 23.2814H11.192C10.2005 23.2814 9.39651 22.466 9.39651 21.4599V13.2381C9.39651 12.232 10.2005 11.4167 11.192 11.4167H24.808C25.7995 11.4167 26.6035 12.232 26.6035 13.2381V21.4599ZM28 13.2381C28 11.4498 26.5708 10 24.808 10H11.192C9.42918 10 8 11.4498 8 13.2381V21.4599C8 23.2482 9.42918 24.698 11.192 24.698H12.1895L13.985 26.7724C14.2603 27.0656 14.7182 27.077 15.0075 26.7977C15.016 26.7894 15.0242 26.781 15.0324 26.7724L16.8279 24.698H24.808C26.5708 24.698 28 23.2482 28 21.4599V13.2381Z" fill="white"/>
<path fill-rule="evenodd" clip-rule="evenodd" d="M13.6522 18.0526C14.3726 18.0526 14.9566 17.4517 14.9566 16.7105C14.9566 15.9693 14.3726 15.3684 13.6522 15.3684C12.9319 15.3684 12.3479 15.9693 12.3479 16.7105C12.3479 17.4517 12.9319 18.0526 13.6522 18.0526Z" fill="white"/>
<path fill-rule="evenodd" clip-rule="evenodd" d="M17.9999 18.0526C18.7203 18.0526 19.3043 17.4517 19.3043 16.7105C19.3043 15.9693 18.7203 15.3684 17.9999 15.3684C17.2795 15.3684 16.6956 15.9693 16.6956 16.7105C16.6956 17.4517 17.2795 18.0526 17.9999 18.0526Z" fill="white"/>
<path fill-rule="evenodd" clip-rule="evenodd" d="M22.3478 18.0526C23.0682 18.0526 23.6522 17.4517 23.6522 16.7105C23.6522 15.9693 23.0682 15.3684 22.3478 15.3684C21.6274 15.3684 21.0435 15.9693 21.0435 16.7105C21.0435 17.4517 21.6274 18.0526 22.3478 18.0526Z" fill="white"/>
</svg>
