<svg width="20" height="21" viewBox="0 0 20 21" fill="none" xmlns="http://www.w3.org/2000/svg">
<path opacity="0.6" fill-rule="evenodd" clip-rule="evenodd" d="M13.0434 7.05029C13.0434 9.01229 11.4855 11.375 9.56517 11.375C7.64501 11.375 6.08691 9.01229 6.08691 7.05029C6.08691 5.08953 7.6444 3.5 9.56517 3.5C11.4864 3.5 13.0434 5.08953 13.0434 7.05029Z" fill="white"/>
<path opacity="0.6" fill-rule="evenodd" clip-rule="evenodd" d="M16.5217 17.4862C16.5217 17.7496 13.1062 20.125 10 20.125C6.9501 20.125 3.47827 17.928 3.47827 17.4862C3.47827 14.5942 7.19924 12.25 10 12.25C12.8008 12.25 16.5217 14.5942 16.5217 17.4862Z" fill="white"/>
<mask id="mask0" mask-type="alpha" maskUnits="userSpaceOnUse" x="0" y="0" width="20" height="21">
<path opacity="0.6" fill-rule="evenodd" clip-rule="evenodd" d="M0 0.194489H19.8125V20.125H0V0.194489Z" fill="white"/>
</mask>
<g mask="url(#mask0)">
<path fill-rule="evenodd" clip-rule="evenodd" d="M9.90673 1.07002C4.91644 1.07002 0.871091 5.14065 0.871091 10.1621C0.871091 15.1836 4.91644 19.2542 9.90673 19.2542C14.897 19.2542 18.9424 15.1836 18.9424 10.1621C18.937 5.14284 14.8947 1.0754 9.90673 1.07002ZM9.90673 20.125C4.43862 20.1282 0.00317009 15.6702 1.77389e-06 10.1679C-0.00237446 6.15945 2.38277 2.53994 6.05327 0.982343C11.0915 -1.15928 16.9012 1.21468 19.0295 6.28458C21.1576 11.3545 18.7984 17.2003 13.7602 19.3419C12.5414 19.8616 11.2307 20.128 9.90673 20.125Z" fill="white"/>
</g>
</svg>
